<svg xmlns="http://www.w3.org/2000/svg" xmlns:xlink="http://www.w3.org/1999/xlink" width="24" height="24" viewBox="0 0 24 24">
  <defs>
    <clipPath id="clip-path">
      <rect id="_Icon_Color" data-name="🎨 Icon Color" width="24" height="24" transform="translate(11 11)" fill="#ffa34b"/>
    </clipPath>
  </defs>
  <g id="company_details" data-name="company details" transform="translate(-11 -11)" clip-path="url(#clip-path)">
    <path id="Subtraction_4" data-name="Subtraction 4" d="M-343.063-34.907h-16.828A2.115,2.115,0,0,1-362-37.016V-52.491a.7.7,0,0,1,.7-.7h6.377v-.7A2.115,2.115,0,0,1-352.812-56h5.625a2.115,2.115,0,0,1,2.109,2.113v.7h6.395a.68.68,0,0,1,.489.205.688.688,0,0,1,.194.51v15.456a2.108,2.108,0,0,1-1.438,2v-1.791a.7.7,0,0,0,.031-.208l0-4.492a2.6,2.6,0,0,0,.785-1.87,2.6,2.6,0,0,0-.787-1.873l0-2.9-.789,2.367A2.6,2.6,0,0,0-341.251-46a2.648,2.648,0,0,0-.363.025l1.935-5.8h-20.642l2.183,6.549a.7.7,0,0,0,.665.481h3.961v-.7a.7.7,0,0,1,.7-.7h5.628a.7.7,0,0,1,.7.7v.7h2.995a2.617,2.617,0,0,0-.388,1.373v.029l-2.615,0v.7a.7.7,0,0,1-.7.7h-5.625a.7.7,0,0,1-.7-.7v-.7h-3.953a2.1,2.1,0,0,1-2-1.442l-1.122-3.365v11.136a.7.7,0,0,0,.7.7h16.828v1.408Zm-9.046-9.842h0v1.406h4.217V-44.75h-4.217Zm-.708-9.837a.7.7,0,0,0-.7.7v.7h7.025v-.7a.7.7,0,0,0-.7-.7Z" transform="translate(373 67)" fill="#ffa34b"/>
    <path id="Path_11" data-name="Path 11" d="M-361.187-43a.813.813,0,0,1-.813-.813.812.812,0,0,1,.813-.813h1.625V-49.5h-.813a.812.812,0,0,1-.813-.813.812.812,0,0,1,.813-.813h1.625a.812.812,0,0,1,.575.238.813.813,0,0,1,.238.574v5.69h1.625a.812.812,0,0,1,.813.813.813.813,0,0,1-.813.813Zm.813-11.379A1.625,1.625,0,0,1-358.749-56a1.625,1.625,0,0,1,1.625,1.625,1.625,1.625,0,0,1-1.625,1.625A1.627,1.627,0,0,1-360.374-54.374Z" transform="translate(390.498 77.996)" fill="#ffa34b"/>
  </g>
</svg>
