<svg xmlns="http://www.w3.org/2000/svg" xmlns:xlink="http://www.w3.org/1999/xlink" width="24" height="24" viewBox="0 0 24 24">
  <defs>
    <clipPath id="clip-path">
      <rect id="Rectangle_2" data-name="Rectangle 2" width="24" height="24" transform="translate(109 67)" fill="#4bd8eb"/>
    </clipPath>
  </defs>
  <g id="restore" transform="translate(-109 -67)" clip-path="url(#clip-path)">
    <g id="_3994345_backup_cloud_server_storage_upload_icon" data-name="3994345_backup_cloud_server_storage_upload_icon" transform="translate(108.25 67.317)">
      <path id="Path_7" data-name="Path 7" d="M-102.651-55.051a.8.8,0,0,1-.8-.8v-7.668l-3.435,3.434a.791.791,0,0,1-.565.234.794.794,0,0,1-.565-.234.794.794,0,0,1-.234-.565.794.794,0,0,1,.234-.565l4.8-4.8a.8.8,0,0,1,.565-.234.794.794,0,0,1,.565.234l4.8,4.8a.792.792,0,0,1,.235.565.792.792,0,0,1-.235.565.791.791,0,0,1-.565.234.794.794,0,0,1-.565-.234l-3.434-3.434v7.668A.8.8,0,0,1-102.651-55.051Z" transform="translate(-89.9 -43.634) rotate(180)" fill="#4bd8eb"/>
      <path id="Path_8" data-name="Path 8" d="M-88.251-51.85a.8.8,0,0,1-.8-.8.8.8,0,0,1,.8-.8,2.4,2.4,0,0,0,2.4-2.4,2.4,2.4,0,0,0-2.4-2.4h-1.6a.8.8,0,0,1-.566-.234.789.789,0,0,1-.233-.565,5.588,5.588,0,0,0-4.976-5.565,5.679,5.679,0,0,0-.624-.036,5.563,5.563,0,0,0-5.455,4.369.819.819,0,0,1-.365.511.8.8,0,0,1-.415.115.786.786,0,0,1-.181-.021,5.96,5.96,0,0,0-.635-.159l-.075-.014h-.077a3.208,3.208,0,0,0-3.2,3.2v.013a3.156,3.156,0,0,0,2.574,3.044.8.8,0,0,1,.609.946.8.8,0,0,1-.78.636.826.826,0,0,1-.167-.017l-.012,0a4.731,4.731,0,0,1-3.823-4.62A4.778,4.778,0,0,1-106.88-60a4.781,4.781,0,0,1,3.322-1.447l.51-.012.2-.468a7.192,7.192,0,0,1,6.593-4.32,7.4,7.4,0,0,1,.758.039,7.157,7.157,0,0,1,4.085,1.831A7.141,7.141,0,0,1-89.2-60.49l.131.64h.814a4,4,0,0,1,4,4A4,4,0,0,1-88.251-51.85Z" transform="translate(109 67)" fill="#4bd8eb"/>
    </g>
  </g>
</svg>
