<svg xmlns="http://www.w3.org/2000/svg" xmlns:xlink="http://www.w3.org/1999/xlink" width="24" height="24" viewBox="0 0 24 24">
  <defs>
    <clipPath id="clip-path">
      <rect id="_Icon_Color" data-name="🎨 Icon Color" width="24" height="24" transform="translate(11 11)" fill="#00cfe8"/>
    </clipPath>
  </defs>
  <g id="Mask_Group_289" data-name="Mask Group 289" transform="translate(-11 -11)" clip-path="url(#clip-path)">
    <g id="email" transform="translate(11 14.202)">
      <g id="Group_680" data-name="Group 680">
        <path id="Path_82" data-name="Path 82" d="M21.891,2.859H2.109A2.113,2.113,0,0,0,0,4.969V19.031a2.113,2.113,0,0,0,2.109,2.109H21.891A2.113,2.113,0,0,0,24,19.031V4.969A2.113,2.113,0,0,0,21.891,2.859ZM21.6,4.266,12.045,13.82,2.407,4.266ZM1.406,18.74V5.253l6.772,6.714Zm.994.994,6.777-6.777,2.375,2.354a.7.7,0,0,0,.992,0l2.315-2.315,6.74,6.74Zm20.193-.994L15.854,12l6.74-6.74Z" fill="#00cfe8"/>
      </g>
    </g>
    <g id="edit" transform="translate(18.197 25.122)">
      <g id="Group_669" data-name="Group 669" transform="translate(3 -13)">
        <g id="Group_668" data-name="Group 668">
          <g id="Path_62" data-name="Path 62" transform="translate(0 -66.146)" fill="#00cfe8">
            <path d="M 2.472333908081055 77.02395629882812 L 2.058114051818848 77.02395629882812 L 4.01977558794897e-06 77.02395629882812 L -0.9999960064888 77.02395629882812 L -0.9999960064888 76.02395629882812 L -0.9999960064888 73.9658203125 L -0.9999960064888 73.55161285400391 L -0.7071059942245483 73.25871276855469 L 5.36570405960083 67.18588256835938 L 6.072813987731934 66.47877502441406 L 6.779923915863037 67.18588256835938 L 8.838033676147461 69.24400329589844 L 9.545133590698242 69.95111083984375 L 8.838033676147461 70.65822601318359 L 2.765223979949951 76.73106384277344 L 2.472333908081055 77.02395629882812 Z" stroke="none"/>
            <path d="M 2.058114051818848 76.02395629882812 L 8.130924224853516 69.95111083984375 L 6.072813987731934 67.89299011230469 L 4.01977558794897e-06 73.9658203125 L 4.01977558794897e-06 76.02395629882812 L 2.058114051818848 76.02395629882812 M 2.886543989181519 78.02395629882812 L -1.999995946884155 78.02395629882812 L -1.999995946884155 73.13739013671875 L 6.072813987731934 65.06455993652344 L 10.95934391021729 69.95111083984375 L 2.886543989181519 78.02395629882812 Z" stroke="none" fill="#e0f9fd"/>
          </g>
          <g id="Path_63" data-name="Path 63" transform="translate(-252.011)" fill="#00cfe8">
            <path d="M 260.7240600585938 4.637210369110107 L 260.0169372558594 3.930120229721069 L 257.9588317871094 1.872000336647034 L 257.251708984375 1.164870262145996 L 257.9588623046875 0.4577702879905701 L 258.9632568359375 -0.546589732170105 C 259.2556457519531 -0.8389797210693359 259.6446838378906 -0.9999997019767761 260.0586547851562 -0.9999997019767761 C 260.4726257324219 -0.9999997019767761 260.8616638183594 -0.8389797210693359 261.154052734375 -0.546589732170105 L 262.4355773925781 0.7349402904510498 C 263.0396118164062 1.339010238647461 263.03955078125 2.321810245513916 262.4355163574219 2.925790309906006 L 261.43115234375 3.930130243301392 L 260.7240600585938 4.637210369110107 Z" stroke="none"/>
            <path d="M 260.0586547851562 2.384185791015625e-07 C 259.9180297851562 2.384185791015625e-07 259.7773742675781 0.05351018905639648 259.6703491210938 0.1605303287506104 L 258.6659545898438 1.164890289306641 L 260.7240600585938 3.223010301589966 L 261.7284545898438 2.218650341033936 C 261.9425048828125 2.004610300064087 261.9425048828125 1.656090259552002 261.7284851074219 1.442050337791443 L 260.4469604492188 0.1605303287506104 C 260.3399353027344 0.05351018905639648 260.1992797851562 2.384185791015625e-07 260.0586547851562 2.384185791015625e-07 M 260.0586547851562 -1.999999761581421 C 260.7397155761719 -1.999999761581421 261.3798522949219 -1.734979867935181 261.8611145019531 -1.25374960899353 L 263.1427001953125 0.02783036231994629 C 264.1366271972656 1.021860361099243 264.1365356445312 2.639070272445679 263.1426086425781 3.632930278778076 L 260.7240295410156 6.051420211791992 L 255.8374938964844 1.164860248565674 L 258.2561645507812 -1.253709554672241 C 258.7373962402344 -1.734949827194214 259.3775634765625 -1.999999761581421 260.0586547851562 -1.999999761581421 Z" stroke="none" fill="#e0f9fd"/>
          </g>
        </g>
      </g>
    </g>
  </g>
</svg>
