<svg xmlns="http://www.w3.org/2000/svg" xmlns:xlink="http://www.w3.org/1999/xlink" width="24" height="24" viewBox="0 0 24 24">
  <defs>
    <clipPath id="clip-path">
      <rect id="Rectangle_1" data-name="Rectangle 1" width="24" height="24" transform="translate(197 67)" fill="#ffa34b"/>
    </clipPath>
  </defs>
  <g id="UBS_Payroll" data-name="UBS Payroll" transform="translate(-197 -67)" clip-path="url(#clip-path)">
    <g id="_16-Money_Bill" data-name="16-Money Bill" transform="translate(197 67)">
      <path id="Path_9" data-name="Path 9" d="M22.5,3H4.5A1.5,1.5,0,0,0,3,4.5V6H1.5A1.5,1.5,0,0,0,0,7.5v12A1.5,1.5,0,0,0,1.5,21h18A1.5,1.5,0,0,0,21,19.5V18h1.5A1.5,1.5,0,0,0,24,16.5V4.5A1.5,1.5,0,0,0,22.5,3Zm-3,16.5H1.5V7.5h18Zm3-3H21v-9A1.5,1.5,0,0,0,19.5,6H4.5V4.5h18Z" fill="#ffa34b"/>
      <path id="Path_10" data-name="Path 10" d="M10.5,18A4.5,4.5,0,1,0,6,13.5,4.5,4.5,0,0,0,10.5,18Zm0-7.5a3,3,0,1,1-3,3,3,3,0,0,1,3-3Z" fill="#ffa34b"/>
      <rect id="Rectangle_3" data-name="Rectangle 3" width="1.5" height="1.5" transform="translate(16.5 12.75)" fill="#ffa34b"/>
      <rect id="Rectangle_4" data-name="Rectangle 4" width="1.5" height="1.5" transform="translate(3 12.75)" fill="#ffa34b"/>
    </g>
  </g>
</svg>
